<svg width="16" height="14" viewBox="0 0 16 14" fill="none" xmlns="http://www.w3.org/2000/svg">
<path d="M6.31563 9.70763C6.31563 10.413 5.975 11.5672 5.16875 11.5672C4.3625 11.5672 4.02187 10.413 4.02187 9.70763C4.02187 9.00229 4.3625 7.84809 5.16875 7.84809C5.975 7.84809 6.31563 9.00229 6.31563 9.70763ZM15.5 8.00333C15.5 9.07991 15.4 10.2206 14.9531 11.2094C13.7688 13.7946 10.5125 13.7338 8.18125 13.7338C5.8125 13.7338 2.3625 13.8249 1.13125 11.2094C0.675 10.2307 0.5 9.07991 0.5 8.00333C0.5 6.58927 0.934375 5.25283 1.79688 4.16951C1.63437 3.63628 1.55625 3.07606 1.55625 2.52258C1.55625 1.79699 1.70938 1.43251 2.0125 0.774414C3.42812 0.774414 4.33437 1.07815 5.4125 1.98936C6.31875 1.75649 7.25 1.65187 8.18437 1.65187C9.02812 1.65187 9.87812 1.74974 10.6969 1.96236C11.7594 1.06128 12.6656 0.774414 14.0656 0.774414C14.3719 1.43251 14.5219 1.79699 14.5219 2.52258C14.5219 3.07606 14.4406 3.62616 14.2812 4.14926C15.1406 5.24271 15.5 6.58927 15.5 8.00333ZM13.4906 9.70763C13.4906 8.22607 12.6562 6.92001 11.1938 6.92001C10.6031 6.92001 10.0375 7.03475 9.44375 7.1225C8.97813 7.20012 8.5125 7.23049 8.03438 7.23049C7.55938 7.23049 7.09375 7.20012 6.625 7.1225C6.04063 7.03475 5.46875 6.92001 4.875 6.92001C3.4125 6.92001 2.57812 8.22607 2.57812 9.70763C2.57812 12.6707 5.09062 13.1263 7.27812 13.1263H8.78438C10.9813 13.1263 13.4906 12.6741 13.4906 9.70763ZM10.9094 7.84809C10.1031 7.84809 9.7625 9.00229 9.7625 9.70763C9.7625 10.413 10.1031 11.5672 10.9094 11.5672C11.7156 11.5672 12.0562 10.413 12.0562 9.70763C12.0562 9.00229 11.7156 7.84809 10.9094 7.84809Z" fill="white"/>
</svg>
