<svg width="79" height="41" viewBox="0 0 79 41" fill="none" xmlns="http://www.w3.org/2000/svg">
<path d="M0 12.1933C0 11.8226 0.209655 11.484 0.540582 11.3205L18.4508 2.46823C19.0936 2.15055 19.8448 2.62095 19.8448 3.34111V30.1084C19.8448 30.4792 19.6351 30.8177 19.3042 30.9812L1.39395 39.8333C0.751219 40.1511 0 39.6806 0 38.9605V12.1933Z" fill="#BBBBBB"/>
<path d="M38.4299 12.1933C38.4299 11.8226 38.6397 11.484 38.9704 11.3205L56.8808 2.46823C57.5235 2.15055 58.2747 2.62095 58.2747 3.34111V30.1084C58.2747 30.4792 58.065 30.8177 57.7342 30.9812L39.8239 39.8333C39.1812 40.1511 38.4299 39.6806 38.4299 38.9605V12.1933Z" fill="#BBBBBB"/>
<path d="M19.2131 30.1079C19.2131 30.4787 19.4228 30.8174 19.7537 30.9809L37.6639 39.8331C38.3066 40.1508 39.0579 39.6803 39.0579 38.9603V12.193C39.0579 11.8222 38.8482 11.4837 38.5174 11.3202L20.6071 2.46792C19.9643 2.15025 19.2131 2.62064 19.2131 3.34081V30.1079Z" fill="white"/>
<path d="M57.644 30.1079C57.644 30.4787 57.8538 30.8174 58.1846 30.9809L76.0949 39.8331C76.7376 40.1508 77.4888 39.6803 77.4888 38.9603V12.193C77.4888 11.8222 77.2791 11.4837 76.9483 11.3202L59.038 2.46792C58.3953 2.15025 57.644 2.62064 57.644 3.34081V30.1079Z" fill="white"/>
</svg>
