<svg width="32" height="32" viewBox="0 0 32 32" fill="none" xmlns="http://www.w3.org/2000/svg">
<circle cx="16" cy="16" r="16" fill="#1E1E1E"/>
<g clip-path="url(#clip0_27_6274)">
<path d="M22.5 11H18V23.5H23.5V12C23.5 11.7348 23.3946 11.4804 23.2071 11.2929C23.0196 11.1054 22.7652 11 22.5 11ZM20 19.5H19V18.5H20V19.5ZM20 17H19V16H20V17ZM20 14.5H19V13.5H20V14.5ZM22 19.5H21V18.5H22V19.5ZM22 17H21V16H22V17ZM22 14.5H21V13.5H22V14.5Z" fill="white"/>
<path d="M15.94 8.5H10.06C9.77887 8.5 9.50926 8.61168 9.31047 8.81047C9.11168 9.00926 9 9.27887 9 9.56V23.5H11.5V22H14.5V23.5H17V9.56C17 9.27887 16.8883 9.00926 16.6895 8.81047C16.4907 8.61168 16.2211 8.5 15.94 8.5ZM11.5 19.5H10.5V18.5H11.5V19.5ZM11.5 17H10.5V16H11.5V17ZM11.5 14.5H10.5V13.5H11.5V14.5ZM11.5 12H10.5V11H11.5V12ZM13.5 19.5H12.5V18.5H13.5V19.5ZM13.5 17H12.5V16H13.5V17ZM13.5 14.5H12.5V13.5H13.5V14.5ZM13.5 12H12.5V11H13.5V12ZM15.5 19.5H14.5V18.5H15.5V19.5ZM15.5 17H14.5V16H15.5V17ZM15.5 14.5H14.5V13.5H15.5V14.5ZM15.5 12H14.5V11H15.5V12Z" fill="white"/>
</g>
<defs>
<clipPath id="clip0_27_6274">
<rect width="18" height="18" fill="white" transform="translate(7 7)"/>
</clipPath>
</defs>
</svg>
