<svg width="32" height="32" viewBox="0 0 32 32" fill="none" xmlns="http://www.w3.org/2000/svg">
<circle cx="16" cy="16" r="16" fill="#1E1E1E"/>
<path d="M10.2197 15.0301L15.4697 9.78014C15.6104 9.63953 15.8011 9.56055 16 9.56055C16.1989 9.56055 16.3896 9.63953 16.5302 9.78014L21.7802 15.0301C21.9209 15.1708 22 15.3615 22 15.5604V22.7499C22 22.9488 21.921 23.1396 21.7803 23.2802C21.6397 23.4209 21.4489 23.4999 21.25 23.4999H17.5V18.2499H14.5V23.4999H10.75C10.5511 23.4999 10.3603 23.4209 10.2197 23.2802C10.079 23.1396 10 22.9488 10 22.7499V15.5604C10 15.3615 10.0791 15.1708 10.2197 15.0301Z" fill="white"/>
</svg>
