<svg width="32" height="32" viewBox="0 0 32 32" fill="none" xmlns="http://www.w3.org/2000/svg">
<circle cx="16" cy="16" r="16" fill="#1E1E1E"/>
<g clip-path="url(#clip0_27_6262)">
<path d="M16 11.5C17.1935 11.5 18.3381 11.9741 19.182 12.818C20.0259 13.6619 20.5 14.8065 20.5 16C20.5 17.665 19.5925 19.12 18.25 19.9V21.25C18.25 21.4489 18.171 21.6397 18.0303 21.7803C17.8897 21.921 17.6989 22 17.5 22H14.5C14.3011 22 14.1103 21.921 13.9697 21.7803C13.829 21.6397 13.75 21.4489 13.75 21.25V19.9C12.4075 19.12 11.5 17.665 11.5 16C11.5 14.8065 11.9741 13.6619 12.818 12.818C13.6619 11.9741 14.8065 11.5 16 11.5ZM17.5 22.75V23.5C17.5 23.6989 17.421 23.8897 17.2803 24.0303C17.1397 24.171 16.9489 24.25 16.75 24.25H15.25C15.0511 24.25 14.8603 24.171 14.7197 24.0303C14.579 23.8897 14.5 23.6989 14.5 23.5V22.75H17.5ZM22 15.25H24.25V16.75H22V15.25ZM7.75 15.25H10V16.75H7.75V15.25ZM16.75 7.75V10H15.25V7.75H16.75ZM10.69 9.625L12.2875 11.23L11.2225 12.2875L9.625 10.6975L10.69 9.625ZM19.7125 11.2225L21.3025 9.625L22.375 10.6975L20.7775 12.2875L19.7125 11.2225Z" fill="white"/>
</g>
<defs>
<clipPath id="clip0_27_6262">
<rect width="18" height="18" fill="white" transform="translate(7 7)"/>
</clipPath>
</defs>
</svg>
