<svg width="144" height="55" viewBox="0 0 144 55" fill="none" xmlns="http://www.w3.org/2000/svg">
<path d="M143.046 12.8514C142.426 12.1487 141.671 11.6181 140.797 11.2709C139.945 10.9348 138.792 10.5821 137.37 10.2266C136.111 9.91268 135.104 9.61548 134.377 9.33771C133.672 9.07106 133.074 8.6822 132.598 8.185C132.142 7.70447 131.91 7.04618 131.91 6.22956C131.91 5.12962 132.336 4.25745 133.215 3.56582C134.095 2.87141 135.423 2.51866 137.157 2.51866C138.036 2.51866 138.944 2.65754 139.851 2.92975C140.758 3.20195 141.599 3.60749 142.352 4.13246C142.401 4.16856 142.462 4.1769 142.52 4.16301C142.578 4.14634 142.625 4.10468 142.653 4.04913L143.179 2.90197C143.22 2.81031 143.192 2.70476 143.112 2.64643C142.341 2.09646 141.419 1.65204 140.371 1.32983C139.323 1.00763 138.241 0.84375 137.157 0.84375C135.605 0.84375 134.288 1.08541 133.243 1.56316C132.186 2.04369 131.39 2.70476 130.872 3.52971C130.355 4.35467 130.092 5.27128 130.092 6.25733C130.092 7.47949 130.413 8.4711 131.041 9.20439C131.661 9.92657 132.421 10.4682 133.306 10.8154C134.17 11.1543 135.326 11.5043 136.75 11.8598C137.989 12.1542 138.988 12.4459 139.713 12.7209C140.418 12.9875 141.016 13.3764 141.491 13.8736C141.948 14.3541 142.18 15.0124 142.18 15.829C142.18 16.9095 141.746 17.7595 140.852 18.4344C139.953 19.1122 138.587 19.4566 136.797 19.4566C135.555 19.4566 134.358 19.2316 133.235 18.7844C132.117 18.34 131.215 17.7595 130.554 17.0567C130.51 17.0095 130.446 16.9845 130.386 16.9928C130.322 16.9984 130.267 17.0373 130.233 17.0901L129.597 18.1539C129.55 18.2317 129.561 18.3344 129.622 18.4011C130.361 19.2038 131.395 19.8677 132.701 20.3704C133.998 20.8704 135.387 21.1259 136.825 21.1259C138.377 21.1259 139.707 20.8843 140.78 20.4093C141.865 19.9288 142.681 19.2733 143.206 18.4566C143.735 17.6428 144 16.729 144 15.7401C144 14.5374 143.679 13.5625 143.049 12.8458L143.046 12.8514Z" fill="#1E1E1E"/>
<path d="M11.1418 28.2979L0 54.0881H8.74081L10.453 49.5939H20.1398L21.852 54.0881H30.7367L19.5949 28.2979H11.1473H11.1418ZM12.818 43.3303L15.2937 36.8446L17.7693 43.3303H12.818Z" fill="#1E1E1E"/>
<path d="M58.409 42.8535C59.2332 41.4785 59.6482 39.8703 59.6482 38.026C59.6482 36.0622 59.1752 34.3428 58.2292 32.8679C57.2832 31.393 55.9361 30.2653 54.1879 29.4792C52.4397 28.6932 50.3873 28.3015 48.0334 28.3015H35.7603V54.0917H44.3545V47.606H46.6863L51.0208 54.0917H60.1986L54.8462 46.1338C56.4008 45.3228 57.5902 44.2312 58.4145 42.8535H58.409ZM50.1052 40.2536C49.5215 40.7814 48.6475 41.0452 47.4829 41.0452H44.3517V35.0039H47.4829C48.6475 35.0039 49.5215 35.2678 50.1052 35.7955C50.6888 36.3233 50.9793 37.0677 50.9793 38.026C50.9793 38.9842 50.6888 39.7259 50.1052 40.2536Z" fill="#1E1E1E"/>
<path d="M64.2336 35.0391H71.6992V54.0881H80.2934V35.0391H87.7591V28.2979H64.2336V35.0391Z" fill="#1E1E1E"/>
<path d="M102.071 44.1414H112.85V37.8779H102.071V34.8558H114.341V28.2979H93.6231V54.0881H114.817V47.5301H102.071V44.1414Z" fill="#1E1E1E"/>
<path d="M141.674 41.5596C140.692 40.4791 139.531 39.6986 138.197 39.2208C136.861 38.7431 135.224 38.3181 133.282 37.9487C131.777 37.6543 130.696 37.3765 130.04 37.121C129.385 36.8626 129.058 36.4766 129.058 35.9599C129.058 34.8794 130.162 34.3378 132.372 34.3378C134.582 34.3378 136.972 34.9766 139.473 36.2543L142.059 29.9547C140.773 29.2186 139.284 28.6603 137.597 28.277C135.91 27.8965 134.192 27.7048 132.444 27.7048C129.894 27.7048 127.728 28.0854 125.944 28.8464C124.16 29.6075 122.818 30.6519 121.919 31.9768C121.02 33.3045 120.572 34.7767 120.572 36.3988C120.572 38.2653 121.059 39.7458 122.03 40.8374C123.001 41.9318 124.14 42.7151 125.451 43.1956C126.762 43.6761 128.4 44.1233 130.367 44.54C131.896 44.8594 132.994 45.1538 133.661 45.4233C134.328 45.6927 134.662 46.0982 134.662 46.6399C134.662 47.1065 134.408 47.4565 133.899 47.6898C133.39 47.9231 132.538 48.0398 131.349 48.0398C129.966 48.0398 128.519 47.8259 127.014 47.3954C125.509 46.9649 124.148 46.3954 122.937 45.6816L120.168 52.0173C121.454 52.8284 123.1 53.4728 125.103 53.9506C127.105 54.4283 129.163 54.67 131.274 54.67C133.824 54.67 135.99 54.2839 137.774 53.5089C139.558 52.734 140.9 51.6924 141.799 50.3785C142.698 49.0647 143.146 47.5982 143.146 45.976C143.146 44.1095 142.654 42.6345 141.672 41.554L141.674 41.5596Z" fill="#1E1E1E"/>
<path d="M35.4136 19.3822C35.3362 19.3655 33.9946 19.3683 33.9946 19.3683H23.6772V11.9798H32.0778C32.1912 11.9798 32.2824 11.8882 32.2824 11.7743V10.516C32.2824 10.4021 32.1912 10.3105 32.0778 10.3105H23.6772V3.00255H29.5744C29.6879 3.00255 29.7791 2.91089 29.7791 2.797V1.51097C29.7791 1.39708 29.6879 1.30542 29.5744 1.30542H21.8377C21.7243 1.30542 21.633 1.39708 21.633 1.51097V1.62207L21.5805 1.77761L21.633 21.096C21.633 21.2098 21.7243 21.3015 21.8377 21.3015H35.3141C35.4026 21.3015 35.48 21.2432 35.5077 21.1598L35.4966 19.5572C35.4966 19.5572 35.4883 19.4072 35.4109 19.3905L35.4136 19.3822Z" fill="#1E1E1E"/>
<path d="M130.431 10.5171L114.064 2.89812C114.011 2.87312 113.948 2.87867 113.898 2.90923C113.848 2.94256 113.818 2.99811 113.818 3.05644V4.35914C113.818 4.42858 113.857 4.48969 113.92 4.51747L118.426 6.57568V10.0922H113.035C112.947 8.35058 112.493 7.11177 111.68 5.72018C110.764 4.15638 109.47 2.91478 107.826 2.02872C106.186 1.14544 104.286 0.698242 102.175 0.698242H94.2035C94.1067 0.698242 94.032 0.776013 94.032 0.873229V10.0949H87.0145V10.081H63.3009V3.22587H70.3184C70.4318 3.22587 70.5231 3.13422 70.5231 3.02033V1.50653C70.5231 1.39264 70.4318 1.30099 70.3184 1.30099H61.4642C61.3536 1.30099 61.2651 1.38987 61.2595 1.49819L61.0908 1.97873L61.2595 21.0887C61.2595 21.2026 61.3508 21.2943 61.4642 21.2943H74.8188C74.9323 21.2943 75.0235 21.2026 75.0235 21.0887V19.5749C75.0235 19.4611 74.9323 19.3694 74.8188 19.3694H63.3009V11.9809H87.0145V11.9643H94.032V21.261C94.032 21.3582 94.1095 21.436 94.2035 21.436H102.175C104.286 21.436 106.186 20.9888 107.826 20.1055C109.47 19.2194 110.764 17.9778 111.68 16.414C112.468 15.0641 112.922 13.6364 113.029 11.9643H118.429V15.9585L113.923 18.0417C113.862 18.0695 113.823 18.1334 113.823 18.2V19.5C113.823 19.5583 113.854 19.6138 113.904 19.6472C113.953 19.6805 114.017 19.6833 114.07 19.6583L130.436 12.0393C130.497 12.0115 130.536 11.9476 130.536 11.8809V10.6755C130.536 10.606 130.497 10.5449 130.436 10.5171H130.431ZM110.319 15.7141C109.544 17.064 108.427 18.1306 106.994 18.8861C105.558 19.6416 103.871 20.0249 101.982 20.0249H95.5451V11.9643H111.458C111.356 13.3836 110.972 14.5752 110.319 15.7141ZM95.5451 10.0949V2.0565H101.982C103.871 2.0565 105.556 2.43981 106.994 3.19532C108.427 3.95083 109.544 5.01744 110.319 6.36736C111.002 7.55896 111.386 8.58113 111.467 10.0949H95.5423H95.5451Z" fill="#1E1E1E"/>
<path d="M57.0982 8.45007C56.8769 7.63067 56.5533 6.8585 56.1356 6.13909C55.2532 4.63084 54.003 3.43091 52.4208 2.57818C50.8413 1.72823 49.0074 1.29492 46.9743 1.29492H39.091C39.0578 1.29492 39.0302 1.30326 39.0025 1.31714L39.1104 21.0827C39.1104 21.1966 39.2017 21.2882 39.3151 21.2882H46.9743C49.0074 21.2882 50.8413 20.8577 52.4208 20.005C54.0057 19.1522 55.256 17.9551 56.1356 16.4441C56.7275 15.433 57.0042 15.2775 57.3195 13.0887C57.6348 10.8999 57.0982 8.44452 57.0982 8.44452V8.45007Z" fill="#1E1E1E"/>
<path d="M16.5127 19.0578L16.5017 19.0939L13.1492 14.347C14.5101 13.897 15.5833 13.1526 16.3412 12.1332C17.1489 11.0471 17.5583 9.69167 17.5583 8.10565C17.5583 5.98077 16.8364 4.29475 15.4118 3.09204C13.9984 1.90044 12.0289 1.29492 9.55604 1.29492H2.61594C2.50254 1.29492 2.41125 1.38658 2.41125 1.50047V21.0827C2.41125 21.1966 2.50254 21.2882 2.61594 21.2882H4.02665C4.14006 21.2882 4.23134 21.1966 4.23134 21.0827V21.2577L13.2598 21.3077L15.8876 21.1993C15.9263 21.2521 15.9872 21.2855 16.0536 21.2855H17.6579C17.7464 21.2855 17.8239 21.2271 17.8515 21.1438L17.9373 20.8799C17.68 20.5522 17.0134 19.7022 16.5127 19.0522V19.0578Z" fill="#1E1E1E"/>
</svg>
